<svg width="39" height="37" viewBox="0 0 39 37" fill="none" xmlns="http://www.w3.org/2000/svg">
<path fill-rule="evenodd" clip-rule="evenodd" d="M10.27 7.74654V4.99654C10.27 2.76654 11.27 0.856546 13.27 0.236546C14.2146 0.0265906 15.1849 -0.044164 16.15 0.0265397H22.5C23.2791 -0.02057 24.061 0.0230611 24.83 0.156545C27.11 0.696545 28.15 2.78654 28.15 5.05654V7.75655H22.83C22.83 5.36655 23.24 5.36655 20.83 5.36655H17.07C15.07 5.36655 15.6 5.79655 15.6 7.75655L10.27 7.74654ZM38.42 14.3966V31.2765C38.42 34.7165 36.31 36.6665 32.96 36.6665H4.87C1.71 36.6665 0 34.1165 0 31.2965V14.5465C0 11.0465 2.21 9.18654 5.52 9.18654H33.02C36.28 9.15654 38.42 11.1566 38.42 14.3966ZM5.66 17.5065V27.8765L10.18 24.4665C10.421 24.2817 10.7163 24.1814 11.02 24.1814C11.3238 24.1814 11.619 24.2817 11.86 24.4665L16.01 27.5265C16.2843 27.7297 16.623 27.8265 16.9632 27.7989C17.3034 27.7713 17.622 27.6212 17.86 27.3765L24.44 20.5565C24.571 20.4247 24.7268 20.3201 24.8985 20.2487C25.0701 20.1773 25.2541 20.1406 25.44 20.1406C25.6259 20.1406 25.8099 20.1773 25.9815 20.2487C26.1532 20.3201 26.309 20.4247 26.44 20.5565L32.73 27.2665V17.3666C32.73 15.0166 32.96 14.8666 30.61 14.8666H8.42999C5.64999 14.8666 5.66 14.7065 5.66 17.5065ZM10.45 22.0865C11.0196 22.0865 11.5764 21.9176 12.05 21.6012C12.5237 21.2847 12.8928 20.8349 13.1108 20.3087C13.3288 19.7824 13.3858 19.2034 13.2747 18.6447C13.1635 18.086 12.8892 17.5729 12.4865 17.1701C12.0837 16.7673 11.5705 16.493 11.0119 16.3819C10.4532 16.2708 9.87412 16.3278 9.34787 16.5458C8.82162 16.7637 8.37183 17.1329 8.05537 17.6065C7.73892 18.0801 7.57001 18.6369 7.57001 19.2065C7.56859 19.5894 7.64378 19.9686 7.79115 20.322C7.93853 20.6753 8.15509 20.9956 8.42812 21.264C8.70114 21.5323 9.02511 21.7434 9.38094 21.8846C9.73676 22.0259 10.1172 22.0945 10.5 22.0865H10.45Z" fill="#37416A"/>
</svg>
