<svg width="501" height="402" viewBox="0 0 501 402" fill="none" xmlns="http://www.w3.org/2000/svg">
<path d="M2 380.109L60.3012 266.842C65.4438 256.851 75.7384 250.572 86.9751 250.572H147.708C155.56 250.572 163.099 247.493 168.707 241.997L215.504 196.129C221.112 190.632 228.651 187.554 236.504 187.554H295.321C305.693 187.554 315.329 182.197 320.803 173.387L360.709 109.166C366.183 100.357 375.818 95 386.19 95H424.295C434.654 95 444.279 89.6562 449.757 80.8644L498.894 2" stroke="#21D1CC" stroke-width="3" stroke-linecap="round" stroke-linejoin="round"/>
<path opacity="0.5" d="M62.5327 266.468L2 380.109V402H499V1L450.285 80.2153C444.826 89.0921 435.151 94.5 424.73 94.5H387.926C377.692 94.5 368.164 99.7169 362.651 108.339L320.849 173.715C315.336 182.337 305.808 187.554 295.574 187.554H237.982C230.077 187.554 222.491 190.674 216.874 196.236L170.769 241.889C165.151 247.452 157.565 250.572 149.66 250.572H89.0106C77.9257 250.572 67.7441 256.685 62.5327 266.468Z" fill="url(#paint0_linear)"/>
<path d="M2 335.109L59.7642 248.875C65.3335 240.561 74.6817 235.571 84.6889 235.571H144.226C154.078 235.571 163.302 230.734 168.904 222.629L211.347 161.225C218.982 150.18 233.026 145.552 245.731 149.896L285.796 163.594C300.595 168.654 316.798 161.496 323.023 147.148L360.429 60.9323C365.796 48.5628 378.756 41.2934 392.109 43.1627L436.001 49.3066C439.278 49.7653 442.608 49.6788 445.856 49.0505L495.5 39.4492" stroke="url(#paint1_linear)" stroke-width="3" stroke-linecap="round" stroke-linejoin="round"/>
<path opacity="0.3" d="M62.033 248.233L2 333V357H499V38L447.692 49.6002C443.609 50.5232 439.379 50.5817 435.272 49.772L394.254 41.684C380.394 38.9509 366.504 46.2588 360.906 59.2301L322.884 147.335C316.724 161.608 300.681 168.811 285.921 163.931L246.911 151.032C234.296 146.861 220.44 151.485 212.858 162.395L170.951 222.693C165.344 230.761 156.141 235.572 146.316 235.572H86.5151C76.7839 235.572 67.6572 240.292 62.033 248.233Z" fill="url(#paint2_linear)"/>
<path d="M150 83C150 71.9543 158.954 63 170 63H270C281.046 63 290 71.9543 290 83V237C290 248.046 281.046 257 270 257H170C158.954 257 150 248.046 150 237V83Z" fill="white"/>
<circle cx="220" cy="133" r="39" fill="#F6F9F9" stroke="url(#paint3_linear)" stroke-width="2"/>
<g clip-path="url(#clip0)">
<path d="M233.769 126.003L228.886 121.36C228.598 121.089 228.147 121.094 227.866 121.373L223.098 126.034C222.96 126.171 222.881 126.358 222.88 126.553C222.879 126.748 222.955 126.935 223.092 127.074L224.616 128.615C224.756 128.757 224.949 128.834 225.148 128.833C225.348 128.831 225.538 128.747 225.675 128.602L226.577 127.642V141.522C226.577 141.928 226.906 142.257 227.312 142.257H229.479C229.885 142.257 230.214 141.928 230.214 141.522V127.569L231.254 128.631C231.395 128.774 231.585 128.854 231.787 128.852C231.987 128.85 232.178 128.766 232.315 128.62L233.8 127.042C233.934 126.9 234.006 126.711 234 126.516C233.994 126.321 233.911 126.136 233.769 126.003Z" fill="url(#paint4_linear)"/>
<path d="M217.889 126.003L213.059 121.36C212.771 121.089 212.32 121.094 212.038 121.373L207.218 126.034C207.08 126.171 207.001 126.358 207 126.553C206.999 126.748 207.075 126.935 207.212 127.074L208.736 128.615C208.876 128.757 209.067 128.834 209.268 128.833C209.468 128.831 209.658 128.747 209.795 128.601L210.697 127.642V141.522C210.697 141.928 211.026 142.257 211.432 142.257H213.599C214.005 142.257 214.334 141.928 214.334 141.522V127.569L215.374 128.631C215.515 128.774 215.709 128.853 215.907 128.852C216.107 128.85 216.298 128.766 216.435 128.62L217.92 127.042C218.054 126.9 218.126 126.711 218.12 126.516C218.114 126.321 218.031 126.136 217.889 126.003Z" fill="url(#paint5_linear)"/>
<path d="M225.794 133.542L220.912 128.899C220.623 128.628 220.172 128.633 219.891 128.911L215.124 133.573C214.985 133.71 214.907 133.897 214.905 134.092C214.904 134.287 214.981 134.474 215.118 134.613L216.641 136.154C216.78 136.294 216.968 136.372 217.164 136.372C217.167 136.372 217.17 136.372 217.173 136.372C217.373 136.37 217.563 136.286 217.7 136.14L218.602 135.181V145.179C218.602 145.586 218.931 145.915 219.337 145.915H221.504C221.91 145.915 222.24 145.586 222.24 145.179V135.108L223.28 136.17C223.42 136.313 223.612 136.393 223.812 136.391C224.013 136.389 224.203 136.305 224.341 136.159L225.826 134.581C225.959 134.439 226.031 134.25 226.025 134.055C226.019 133.86 225.936 133.675 225.794 133.542Z" fill="url(#paint6_linear)"/>
</g>
<path d="M200.016 201V199.074H203.472V190.146H203.31L200.574 193.386L199.098 192.144L202.212 188.436H205.794V199.074H208.674V201H200.016ZM211.853 201.198C211.361 201.198 210.995 201.078 210.755 200.838C210.527 200.586 210.413 200.268 210.413 199.884V199.56C210.413 199.176 210.527 198.858 210.755 198.606C210.995 198.354 211.361 198.228 211.853 198.228C212.357 198.228 212.723 198.354 212.951 198.606C213.179 198.858 213.293 199.176 213.293 199.56V199.884C213.293 200.268 213.179 200.586 212.951 200.838C212.723 201.078 212.357 201.198 211.853 201.198ZM220.814 201V198.57H215.126V196.554L220.13 188.436H223.064V196.734H224.702V198.57H223.064V201H220.814ZM217.07 196.734H220.814V190.74H220.67L217.07 196.734ZM228.583 201L237.295 188.436H239.383L230.671 201H228.583ZM229.447 195.348C228.427 195.348 227.647 195.048 227.107 194.448C226.579 193.836 226.315 192.948 226.315 191.784C226.315 190.62 226.579 189.738 227.107 189.138C227.647 188.526 228.427 188.22 229.447 188.22C230.467 188.22 231.241 188.526 231.769 189.138C232.297 189.738 232.561 190.62 232.561 191.784C232.561 192.948 232.297 193.836 231.769 194.448C231.241 195.048 230.467 195.348 229.447 195.348ZM229.447 193.98C230.191 193.98 230.563 193.41 230.563 192.27V191.298C230.563 190.158 230.191 189.588 229.447 189.588C228.703 189.588 228.331 190.158 228.331 191.298V192.27C228.331 193.41 228.703 193.98 229.447 193.98ZM238.519 201.216C237.511 201.216 236.737 200.916 236.197 200.316C235.669 199.704 235.405 198.816 235.405 197.652C235.405 196.488 235.669 195.606 236.197 195.006C236.737 194.394 237.511 194.088 238.519 194.088C239.539 194.088 240.313 194.394 240.841 195.006C241.381 195.606 241.651 196.488 241.651 197.652C241.651 198.816 241.381 199.704 240.841 200.316C240.313 200.916 239.539 201.216 238.519 201.216ZM238.519 199.848C239.263 199.848 239.635 199.278 239.635 198.138V197.166C239.635 196.026 239.263 195.456 238.519 195.456C237.775 195.456 237.403 196.026 237.403 197.166V198.138C237.403 199.278 237.775 199.848 238.519 199.848Z" fill="#1C232B"/>
<path opacity="0.5" d="M200.13 216.455H201.153C201.106 215.138 199.892 214.153 198.204 214.153C196.534 214.153 195.221 215.125 195.221 216.591C195.221 217.767 196.074 218.466 197.437 218.858L198.511 219.165C199.431 219.42 200.25 219.744 200.25 220.614C200.25 221.568 199.329 222.199 198.119 222.199C197.079 222.199 196.159 221.739 196.074 220.75H194.983C195.085 222.182 196.244 223.153 198.119 223.153C200.13 223.153 201.272 222.045 201.272 220.631C201.272 218.994 199.721 218.466 198.818 218.227L197.931 217.989C197.284 217.818 196.244 217.477 196.244 216.54C196.244 215.705 197.011 215.091 198.17 215.091C199.227 215.091 200.028 215.594 200.13 216.455ZM202.533 215.21H205.277V223H206.334V215.21H209.078V214.273H202.533V215.21ZM210.048 223L210.925 220.528H214.454L215.332 223H216.44L213.235 214.273H212.144L208.94 223H210.048ZM211.258 219.591L212.656 215.653H212.724L214.121 219.591H211.258ZM217.799 223H218.856V220.17L219.947 218.943L222.981 223H224.259L220.594 218.21L224.259 214.273H222.879L218.958 218.602H218.856V214.273H217.799V223ZM226.684 214.273H225.627V223H226.684V214.273ZM235.723 214.273H234.684V221.142H234.598L229.826 214.273H228.803V223H229.86V216.148H229.945L234.701 223H235.723V214.273ZM243.804 217H244.895C244.571 215.312 243.156 214.153 241.315 214.153C239.078 214.153 237.497 215.875 237.497 218.636C237.497 221.398 239.065 223.119 241.384 223.119C243.463 223.119 244.946 221.734 244.946 219.574V218.636H241.622V219.574H243.923C243.893 221.142 242.862 222.131 241.384 222.131C239.764 222.131 238.52 220.903 238.52 218.636C238.52 216.369 239.764 215.142 241.315 215.142C242.577 215.142 243.433 215.854 243.804 217ZM192.246 240H193.303V236.591H195.212C195.289 236.591 195.361 236.591 195.434 236.587L197.275 240H198.502L196.529 236.395C197.641 236.016 198.161 235.108 198.161 233.949C198.161 232.406 197.241 231.273 195.195 231.273H192.246V240ZM193.303 235.636V232.21H195.161C196.576 232.21 197.121 232.901 197.121 233.949C197.121 234.997 196.576 235.636 195.178 235.636H193.303ZM199.922 240H205.257V239.062H200.979V236.097H204.916V235.159H200.979V232.21H205.189V231.273H199.922V240ZM208.679 240H209.77L211.696 233.045H211.764L213.691 240H214.781L217.168 231.273H216.094L214.27 238.381H214.185L212.327 231.273H211.134L209.276 238.381H209.191L207.367 231.273H206.293L208.679 240ZM218.163 240L219.041 237.528H222.569L223.447 240H224.555L221.35 231.273H220.259L217.055 240H218.163ZM219.373 236.591L220.771 232.653H220.839L222.237 236.591H219.373ZM225.914 240H226.971V236.591H228.88C228.957 236.591 229.029 236.591 229.102 236.587L230.943 240H232.17L230.197 236.395C231.309 236.016 231.829 235.108 231.829 233.949C231.829 232.406 230.909 231.273 228.863 231.273H225.914V240ZM226.971 235.636V232.21H228.829C230.244 232.21 230.789 232.901 230.789 233.949C230.789 234.997 230.244 235.636 228.846 235.636H226.971ZM236.283 240C238.942 240 240.442 238.347 240.442 235.619C240.442 232.909 238.942 231.273 236.403 231.273H233.59V240H236.283ZM234.647 239.062V232.21H236.334C238.38 232.21 239.42 233.506 239.42 235.619C239.42 237.75 238.38 239.062 236.215 239.062H234.647ZM246.988 233.455H248.01C247.964 232.138 246.749 231.153 245.062 231.153C243.391 231.153 242.079 232.125 242.079 233.591C242.079 234.767 242.931 235.466 244.295 235.858L245.368 236.165C246.289 236.42 247.107 236.744 247.107 237.614C247.107 238.568 246.187 239.199 244.976 239.199C243.937 239.199 243.016 238.739 242.931 237.75H241.84C241.942 239.182 243.101 240.153 244.976 240.153C246.988 240.153 248.13 239.045 248.13 237.631C248.13 235.994 246.579 235.466 245.675 235.227L244.789 234.989C244.141 234.818 243.101 234.477 243.101 233.54C243.101 232.705 243.868 232.091 245.028 232.091C246.084 232.091 246.885 232.594 246.988 233.455Z" fill="#1C232B"/>
<path d="M0 83C0 71.9543 8.95431 63 20 63H120C131.046 63 140 71.9543 140 83V237C140 248.046 131.046 257 120 257H20C8.9543 257 0 248.046 0 237V83Z" fill="white"/>
<circle cx="70" cy="133" r="39" fill="#F6F9F9" stroke="#21D1CC" stroke-width="2"/>
<path fill-rule="evenodd" clip-rule="evenodd" d="M63.4846 125.704V123.679C63.4846 122.037 64.2134 120.631 65.671 120.174C66.3594 120.02 67.0665 119.967 67.7699 120.02H72.3977C72.9655 119.985 73.5353 120.017 74.0958 120.115C75.7574 120.513 76.5153 122.052 76.5153 123.723V125.712H72.6382C72.6382 123.952 72.937 123.952 71.1806 123.952H68.4404C66.9828 123.952 67.3691 124.268 67.3691 125.712L63.4846 125.704ZM84 130.601V143.031C84 145.564 82.4622 147 80.0208 147H59.5492C57.2462 147 56 145.122 56 143.046V130.712C56 128.134 57.6106 126.765 60.0229 126.765H80.0645C82.4404 126.743 84 128.215 84 130.601ZM60.1249 132.891V140.527L63.419 138.016C63.5947 137.88 63.8099 137.806 64.0312 137.806C64.2526 137.806 64.4678 137.88 64.6434 138.016L67.6679 140.27C67.8678 140.419 68.1146 140.49 68.3625 140.47C68.6105 140.45 68.8427 140.339 69.0161 140.159L73.8116 135.137C73.9071 135.04 74.0206 134.963 74.1457 134.91C74.2707 134.858 74.4049 134.831 74.5403 134.831C74.6758 134.831 74.8099 134.858 74.935 134.91C75.0601 134.963 75.1736 135.04 75.2691 135.137L79.8532 140.078V132.788C79.8532 131.058 80.0208 130.947 78.3082 130.947H62.1437C60.1176 130.947 60.1249 130.829 60.1249 132.891ZM63.6158 136.264C64.0309 136.264 64.4368 136.139 64.7819 135.906C65.1271 135.673 65.3961 135.342 65.555 134.955C65.7138 134.567 65.7554 134.141 65.6744 133.729C65.5934 133.318 65.3935 132.94 65.1 132.643C64.8064 132.347 64.4324 132.145 64.0253 132.063C63.6181 131.981 63.1961 132.023 62.8126 132.184C62.4291 132.344 62.1013 132.616 61.8707 132.965C61.64 133.314 61.5169 133.724 61.5169 134.143C61.5159 134.425 61.5707 134.704 61.6781 134.964C61.7855 135.225 61.9433 135.46 62.1423 135.658C62.3413 135.856 62.5774 136.011 62.8367 136.115C63.096 136.219 63.3733 136.27 63.6523 136.264H63.6158Z" fill="#21D1CC"/>
<path d="M46.8626 201V199.074H50.3186V190.146H50.1566L47.4206 193.386L45.9446 192.144L49.0586 188.436H52.6406V199.074H55.5206V201H46.8626ZM58.7356 198.228C59.2276 198.228 59.5876 198.354 59.8156 198.606C60.0556 198.858 60.1756 199.176 60.1756 199.56V199.884C60.1756 200.208 60.1276 200.544 60.0316 200.892C59.9476 201.24 59.8216 201.576 59.6536 201.9C59.4976 202.224 59.3056 202.53 59.0776 202.818C58.8616 203.106 58.6156 203.358 58.3396 203.574H56.7016C57.1096 203.178 57.4516 202.788 57.7276 202.404C58.0036 202.032 58.2136 201.618 58.3576 201.162C57.9856 201.102 57.7156 200.958 57.5476 200.73C57.3796 200.49 57.2956 200.208 57.2956 199.884V199.56C57.2956 199.176 57.4096 198.858 57.6376 198.606C57.8656 198.354 58.2316 198.228 58.7356 198.228ZM66.7965 201.216C65.9925 201.216 65.2965 201.072 64.7085 200.784C64.1205 200.484 63.6345 200.058 63.2505 199.506C62.8665 198.954 62.5785 198.276 62.3865 197.472C62.2065 196.668 62.1165 195.75 62.1165 194.718C62.1165 193.698 62.2065 192.786 62.3865 191.982C62.5785 191.166 62.8665 190.482 63.2505 189.93C63.6345 189.378 64.1205 188.958 64.7085 188.67C65.2965 188.37 65.9925 188.22 66.7965 188.22C68.3925 188.22 69.5685 188.79 70.3245 189.93C71.0925 191.07 71.4765 192.666 71.4765 194.718C71.4765 196.77 71.0925 198.366 70.3245 199.506C69.5685 200.646 68.3925 201.216 66.7965 201.216ZM66.7965 199.218C67.6005 199.218 68.1585 198.918 68.4705 198.318C68.7945 197.706 68.9565 196.884 68.9565 195.852V193.584C68.9565 192.552 68.7945 191.736 68.4705 191.136C68.1585 190.524 67.6005 190.218 66.7965 190.218C65.9925 190.218 65.4285 190.524 65.1045 191.136C64.7925 191.736 64.6365 192.552 64.6365 193.584V195.852C64.6365 196.884 64.7925 197.706 65.1045 198.318C65.4285 198.918 65.9925 199.218 66.7965 199.218ZM76.9055 193.512C77.6255 193.512 78.1535 193.368 78.4895 193.08C78.8375 192.78 79.0115 192.402 79.0115 191.946V191.82C79.0115 191.304 78.8435 190.902 78.5075 190.614C78.1835 190.314 77.7335 190.164 77.1575 190.164C76.6055 190.164 76.1135 190.296 75.6815 190.56C75.2615 190.824 74.8955 191.196 74.5835 191.676L73.0715 190.308C73.2875 190.02 73.5215 189.75 73.7735 189.498C74.0375 189.234 74.3375 189.012 74.6735 188.832C75.0095 188.64 75.3875 188.49 75.8075 188.382C76.2275 188.274 76.7015 188.22 77.2295 188.22C77.8655 188.22 78.4415 188.298 78.9575 188.454C79.4855 188.598 79.9355 188.814 80.3075 189.102C80.6915 189.39 80.9855 189.738 81.1895 190.146C81.3935 190.542 81.4955 190.992 81.4955 191.496C81.4955 191.904 81.4295 192.27 81.2975 192.594C81.1775 192.918 81.0035 193.2 80.7755 193.44C80.5595 193.68 80.3015 193.878 80.0015 194.034C79.7135 194.178 79.4075 194.286 79.0835 194.358V194.466C79.4435 194.538 79.7855 194.652 80.1095 194.808C80.4335 194.964 80.7095 195.174 80.9375 195.438C81.1775 195.69 81.3635 195.99 81.4955 196.338C81.6395 196.686 81.7115 197.082 81.7115 197.526C81.7115 198.078 81.5975 198.582 81.3695 199.038C81.1535 199.494 80.8415 199.884 80.4335 200.208C80.0255 200.532 79.5395 200.784 78.9755 200.964C78.4115 201.132 77.7815 201.216 77.0855 201.216C76.4735 201.216 75.9335 201.15 75.4655 201.018C74.9975 200.898 74.5835 200.73 74.2235 200.514C73.8755 200.298 73.5695 200.052 73.3055 199.776C73.0415 199.488 72.8135 199.188 72.6215 198.876L74.3675 197.544C74.5115 197.796 74.6675 198.03 74.8355 198.246C75.0035 198.45 75.1955 198.63 75.4115 198.786C75.6275 198.942 75.8735 199.062 76.1495 199.146C76.4255 199.23 76.7375 199.272 77.0855 199.272C77.7815 199.272 78.3155 199.104 78.6875 198.768C79.0595 198.432 79.2455 197.97 79.2455 197.382V197.256C79.2455 196.68 79.0415 196.242 78.6335 195.942C78.2375 195.642 77.6615 195.492 76.9055 195.492H75.6635V193.512H76.9055ZM92.8104 201H84.0984V198.804L88.0404 195.348C88.7124 194.76 89.2044 194.232 89.5164 193.764C89.8284 193.284 89.9844 192.768 89.9844 192.216V191.982C89.9844 191.43 89.8044 191.01 89.4444 190.722C89.0844 190.422 88.6464 190.272 88.1304 190.272C87.4824 190.272 86.9904 190.458 86.6544 190.83C86.3184 191.19 86.0784 191.628 85.9344 192.144L83.8824 191.352C84.0144 190.932 84.2004 190.536 84.4404 190.164C84.6804 189.78 84.9804 189.444 85.3404 189.156C85.7124 188.868 86.1444 188.64 86.6364 188.472C87.1284 188.304 87.6924 188.22 88.3284 188.22C88.9884 188.22 89.5764 188.316 90.0924 188.508C90.6084 188.688 91.0404 188.946 91.3884 189.282C91.7484 189.618 92.0184 190.014 92.1984 190.47C92.3904 190.926 92.4864 191.424 92.4864 191.964C92.4864 192.492 92.4024 192.972 92.2344 193.404C92.0664 193.836 91.8384 194.25 91.5504 194.646C91.2624 195.03 90.9264 195.402 90.5424 195.762C90.1584 196.11 89.7504 196.464 89.3184 196.824L86.6724 199.002H92.8104V201Z" fill="#1C232B"/>
<path opacity="0.5" d="M57.9956 215.21H60.7399V223H61.7967V215.21H64.541V214.273H57.9956V215.21ZM66.1721 223H67.2289V219.591H69.138C69.2147 219.591 69.2871 219.591 69.3596 219.587L71.2005 223H72.4277L70.4547 219.395C71.5669 219.016 72.0868 218.108 72.0868 216.949C72.0868 215.406 71.1664 214.273 69.1209 214.273H66.1721V223ZM67.2289 218.636V215.21H69.0868C70.5016 215.21 71.0471 215.901 71.0471 216.949C71.0471 217.997 70.5016 218.636 69.1039 218.636H67.2289ZM74.9047 214.273H73.8478V223H74.9047V214.273ZM77.0236 223H78.0804V219.812H79.9895C82.0222 219.812 82.9384 218.577 82.9384 217.034C82.9384 215.491 82.0222 214.273 79.9725 214.273H77.0236V223ZM78.0804 218.875V215.21H79.9384C81.3574 215.21 81.8986 215.986 81.8986 217.034C81.8986 218.082 81.3574 218.875 79.9554 218.875H78.0804Z" fill="#1C232B"/>
<defs>
<linearGradient id="paint0_linear" x1="58" y1="35" x2="190.18" y2="428.331" gradientUnits="userSpaceOnUse">
<stop stop-color="#21D1CB"/>
<stop offset="0.823631" stop-color="#21D1CC" stop-opacity="0"/>
</linearGradient>
<linearGradient id="paint1_linear" x1="2" y1="187.279" x2="497.362" y2="193.807" gradientUnits="userSpaceOnUse">
<stop stop-color="#2485DF"/>
<stop offset="1" stop-color="#6592EA"/>
</linearGradient>
<linearGradient id="paint2_linear" x1="63.0329" y1="19" x2="229.236" y2="376.572" gradientUnits="userSpaceOnUse">
<stop stop-color="#4F8EE7"/>
<stop offset="0.823631" stop-color="#518FE7" stop-opacity="0"/>
</linearGradient>
<linearGradient id="paint3_linear" x1="180" y1="133" x2="260.311" y2="133.634" gradientUnits="userSpaceOnUse">
<stop stop-color="#2485DF"/>
<stop offset="1" stop-color="#6592EA"/>
</linearGradient>
<linearGradient id="paint4_linear" x1="222.88" y1="131.709" x2="234.044" y2="131.755" gradientUnits="userSpaceOnUse">
<stop stop-color="#2485DF"/>
<stop offset="1" stop-color="#6592EA"/>
</linearGradient>
<linearGradient id="paint5_linear" x1="207" y1="131.709" x2="218.164" y2="131.755" gradientUnits="userSpaceOnUse">
<stop stop-color="#2485DF"/>
<stop offset="1" stop-color="#6592EA"/>
</linearGradient>
<linearGradient id="paint6_linear" x1="214.905" y1="137.307" x2="226.069" y2="137.364" gradientUnits="userSpaceOnUse">
<stop stop-color="#2485DF"/>
<stop offset="1" stop-color="#6592EA"/>
</linearGradient>
<clipPath id="clip0">
<rect width="27" height="27" fill="white" transform="translate(207 120)"/>
</clipPath>
</defs>
</svg>
